<?xml version="1.0" encoding="UTF-8"?>
<svg id="Layer_1" data-name="Layer 1" xmlns="http://www.w3.org/2000/svg" viewBox="0 0 358.11 400.56">
  <defs>
    <style>
      .cls-1 {
        fill: #f9f28d;
      }
    </style>
  </defs>
  <path class="cls-1" d="M237.86,78.39s-57.06,20.13-64.94,67.35-69.29-4.9-84.77,29.68c-15.48,34.58-35.61,86.71-2.58,77.42,33.03-9.29,56.77-52.65,75.35-36.13s-68.65,21.16-73.81,54.19,15.48,123.87,58.84,58.84c43.35-65.03,23.74-84.13,42.84-83.61s6.45,76.9-15.87,83.1c-22.32,6.19-13.03,59.87,26.19,25.81,39.23-34.06,86.71-91.35,56.26-127.48,0,0-12.39-22.71,4.13-19.61s74.84-61.94,49.03-81.55c-25.81-19.61-8.19-67.61-70.68-48Z"/>
  <path class="cls-1" d="M301.31,205.94s-18.58,9.63-31.74,8.13-9.03,9.08,9.03,18.37c18.06,9.29,55.23-3.71,44.9-18.37-10.32-14.66-22.19-8.13-22.19-8.13Z"/>
  <path class="cls-1" d="M297.57,256.97s-13.02-6.82-17.45-15-8.86-1.54-6.94,12.59c1.92,14.14,24.36,30.3,28.64,18.45,4.29-11.84-4.25-16.04-4.25-16.04Z"/>
  <path class="cls-1" d="M136.15,83.03c-11.51,15.87,16.26,41.81,24.77,28.65,8.52-13.16-.77-33.29,15.48-33.29s-17.81-26.32-40.26,4.65Z"/>
</svg>